<svg xmlns="http://www.w3.org/2000/svg" viewBox="0 0 520 128" role="img" aria-labelledby="title">
  <title id="title">Clusteration</title>
  <defs>
    <linearGradient id="cube" x1="0" y1="0" x2="1" y2="1">
      <stop offset="0" stop-color="#72f6cb"/>
      <stop offset="1" stop-color="#1b8f73"/>
    </linearGradient>
    <linearGradient id="gold" x1="0" y1="0" x2="1" y2="1">
      <stop offset="0" stop-color="#ffd16a"/>
      <stop offset="1" stop-color="#a66d23"/>
    </linearGradient>
    <filter id="glow" x="-40%" y="-40%" width="180%" height="180%">
      <feGaussianBlur stdDeviation="3.5" result="blur"/>
      <feMerge>
        <feMergeNode in="blur"/>
        <feMergeNode in="SourceGraphic"/>
      </feMerge>
    </filter>
  </defs>
  <g transform="translate(20 18)" filter="url(#glow)">
    <path d="M48 8 72 22 48 36 24 22Z" fill="url(#cube)"/>
    <path d="M48 40 72 54 48 68 24 54Z" fill="url(#cube)" opacity=".92"/>
    <path d="M20 56 44 70 20 84 -4 70Z" fill="url(#cube)" opacity=".78"/>
    <path d="M76 56 100 70 76 84 52 70Z" fill="url(#cube)" opacity=".7"/>
    <path d="M48 72 72 86 48 100 24 86Z" fill="url(#cube)" opacity=".64"/>
    <path d="M48 8v-8M24 22 8 14M72 22 88 14M-4 70-14 76M100 70l12 8M48 100v12" stroke="#66ffd1" stroke-width="2" stroke-linecap="round" opacity=".9"/>
    <circle cx="48" cy="0" r="4" fill="#6dffd4"/>
    <circle cx="8" cy="14" r="4" fill="#6dffd4"/>
    <circle cx="88" cy="14" r="4" fill="url(#gold)"/>
    <circle cx="-14" cy="76" r="4" fill="#6dffd4"/>
    <circle cx="112" cy="78" r="4" fill="url(#gold)"/>
    <circle cx="48" cy="112" r="4" fill="#6dffd4"/>
  </g>
  <text x="154" y="80" fill="#5ed29c" font-family="Inter, Arial, sans-serif" font-size="54" font-weight="700" letter-spacing="-2">clusteration</text>
</svg>
